<svg width="16" height="18" viewBox="0 0 16 18" fill="none" xmlns="http://www.w3.org/2000/svg">
<path d="M7.80518 17.8965C3.82294 17.8965 0.583984 15.4097 0.583984 12.3522V4.59029C0.583984 4.18151 1.01539 3.85111 1.54675 3.85111C2.07829 3.85111 2.50969 4.18151 2.50969 4.59029V12.3522C2.50969 14.5936 4.88497 16.4179 7.80518 16.4179C10.7254 16.4179 13.1007 14.5936 13.1007 12.3522V4.22063C13.1007 2.79397 11.5891 1.63341 9.73088 1.63341C7.87252 1.63341 6.36094 2.79397 6.36094 4.22063V11.613C6.36094 12.2243 7.00883 12.7219 7.80518 12.7219C8.60152 12.7219 9.24941 12.2243 9.24941 11.613V4.59029C9.24941 4.18151 9.68082 3.85111 10.2122 3.85111C10.7437 3.85111 11.1751 4.18151 11.1751 4.59029V11.613C11.1751 13.0397 9.66336 14.2003 7.80518 14.2003C5.94699 14.2003 4.43523 13.0397 4.43523 11.613V4.22063C4.43523 1.97939 6.8105 0.154907 9.73088 0.154907C12.6511 0.154907 15.0264 1.97939 15.0264 4.22063V12.3522C15.0264 15.4097 11.7874 17.8965 7.80518 17.8965Z" fill="#808080"/>
</svg>
 